<svg width="108" height="154" viewBox="0 0 108 154" fill="none" xmlns="http://www.w3.org/2000/svg">
<path d="M108 37.3154L27 69.6315L27 4.99931L108 37.3154Z" fill="#FAE106"/>
<line y1="-1.5" x2="149.335" y2="-1.5" transform="matrix(0.0314437 0.999506 -0.999838 0.018017 25.0435 4.7384)" stroke="black" stroke-width="3"/>
<path d="M45.7642 54V50.804L57.767 37.6648C59.1757 36.1259 60.3357 34.7884 61.2472 33.652C62.1586 32.5038 62.8333 31.4266 63.2713 30.4205C63.7211 29.4025 63.946 28.3371 63.946 27.2244C63.946 25.946 63.6383 24.8393 63.0227 23.9041C62.419 22.969 61.5904 22.2469 60.5369 21.7379C59.4834 21.2289 58.2997 20.9744 56.9858 20.9744C55.589 20.9744 54.3698 21.2644 53.3281 21.8445C52.2983 22.4126 51.4993 23.2116 50.9311 24.2415C50.3748 25.2713 50.0966 26.4787 50.0966 27.8636H45.9062C45.9062 25.733 46.3975 23.8627 47.38 22.2528C48.3625 20.643 49.7 19.3883 51.3928 18.4886C53.0973 17.589 55.009 17.1392 57.1278 17.1392C59.2585 17.1392 61.1465 17.589 62.7919 18.4886C64.4373 19.3883 65.7275 20.6016 66.6626 22.1286C67.5978 23.6555 68.0653 25.3542 68.0653 27.2244C68.0653 28.562 67.8227 29.87 67.3374 31.1484C66.8639 32.415 66.0353 33.8295 64.8516 35.392C63.6797 36.9427 62.0521 38.8366 59.9688 41.0739L51.8011 49.8097V50.0938H68.7045V54H45.7642Z" fill="black"/>
<path d="M45.7642 54H42.7642V57H45.7642V54ZM45.7642 50.804L43.5493 48.7806L42.7642 49.64V50.804H45.7642ZM57.767 37.6648L55.5542 35.6391L55.5521 35.6414L57.767 37.6648ZM61.2472 33.652L63.5874 35.529L63.5921 35.5231L63.5968 35.5172L61.2472 33.652ZM63.2713 30.4205L60.5272 29.208L60.5239 29.2155L60.5206 29.2231L63.2713 30.4205ZM63.0227 23.9041L60.5023 25.5312L60.5095 25.5424L60.5169 25.5535L63.0227 23.9041ZM60.5369 21.7379L61.842 19.0367V19.0367L60.5369 21.7379ZM53.3281 21.8445L54.7774 24.4712L54.7876 24.4655L53.3281 21.8445ZM50.9311 24.2415L48.3044 22.7922L48.298 22.8039L48.2916 22.8156L50.9311 24.2415ZM50.0966 27.8636V30.8636H53.0966V27.8636H50.0966ZM45.9062 27.8636H42.9062V30.8636H45.9062V27.8636ZM47.38 22.2528L49.9407 23.8157L49.9407 23.8157L47.38 22.2528ZM51.3928 18.4886L49.9925 15.8355L49.9848 15.8395L51.3928 18.4886ZM62.7919 18.4886L64.2311 15.8564V15.8564L62.7919 18.4886ZM66.6626 22.1285L64.1043 23.6953L66.6626 22.1285ZM67.3374 31.1484L64.5327 30.0837L64.53 30.0908L64.5273 30.0979L67.3374 31.1484ZM64.8516 35.392L62.4603 33.5805L62.4582 33.5833L64.8516 35.392ZM59.9688 41.0739L62.1601 43.1227L62.1642 43.1183L59.9688 41.0739ZM51.8011 49.8097L49.6097 47.7608L48.8011 48.6257V49.8097H51.8011ZM51.8011 50.0938H48.8011V53.0938H51.8011V50.0938ZM68.7045 50.0938H71.7045V47.0938H68.7045V50.0938ZM68.7045 54V57H71.7045V54H68.7045ZM48.7642 54V50.804H42.7642V54H48.7642ZM47.9791 52.8274L59.982 39.6881L55.5521 35.6414L43.5493 48.7806L47.9791 52.8274ZM59.9799 39.6904C61.4155 38.1221 62.6219 36.7328 63.5874 35.529L58.9069 31.7749C58.0495 32.8439 56.9358 34.1298 55.5542 35.6391L59.9799 39.6904ZM63.5968 35.5172C64.6198 34.2285 65.4518 32.9277 66.022 31.6178L60.5206 29.2231C60.2149 29.9255 59.6974 30.7791 58.8975 31.7868L63.5968 35.5172ZM66.0154 31.6329C66.6339 30.2331 66.946 28.7548 66.946 27.2244H60.946C60.946 27.9195 60.8083 28.5718 60.5272 29.208L66.0154 31.6329ZM66.946 27.2244C66.946 25.4453 66.5105 23.7465 65.5286 22.2547L60.5169 25.5535C60.766 25.932 60.946 26.4467 60.946 27.2244H66.946ZM65.5431 22.277C64.6251 20.8549 63.3651 19.7725 61.842 19.0367L59.2318 24.4392C59.8158 24.7213 60.213 25.0831 60.5023 25.5312L65.5431 22.277ZM61.842 19.0367C60.334 18.3081 58.6957 17.9744 56.9858 17.9744V23.9744C57.9037 23.9744 58.6329 24.1498 59.2318 24.4392L61.842 19.0367ZM56.9858 17.9744C55.1663 17.9744 53.4277 18.3553 51.8687 19.2234L54.7876 24.4655C55.3118 24.1736 56.0117 23.9744 56.9858 23.9744V17.9744ZM51.8789 19.2177C50.3533 20.0594 49.1461 21.2667 48.3044 22.7922L53.5578 25.6907C53.8525 25.1566 54.2433 24.7659 54.7774 24.4712L51.8789 19.2177ZM48.2916 22.8156C47.4588 24.3572 47.0966 26.072 47.0966 27.8636H53.0966C53.0966 26.8854 53.2907 26.1854 53.5706 25.6674L48.2916 22.8156ZM50.0966 24.8636H45.9062V30.8636H50.0966V24.8636ZM48.9062 27.8636C48.9062 26.2111 49.2814 24.896 49.9407 23.8157L44.8192 20.69C43.5135 22.8294 42.9062 25.2548 42.9062 27.8636H48.9062ZM49.9407 23.8157C50.6384 22.6725 51.5744 21.7894 52.8007 21.1377L49.9848 15.8395C47.8257 16.9871 46.0865 18.6135 44.8192 20.69L49.9407 23.8157ZM52.793 21.1418C54.0243 20.492 55.4476 20.1392 57.1278 20.1392V14.1392C54.5704 14.1392 52.1703 14.6861 49.9925 15.8355L52.793 21.1418ZM57.1278 20.1392C58.8249 20.1392 60.2058 20.4938 61.3527 21.1209L64.2311 15.8564C62.0873 14.6842 59.6921 14.1392 57.1278 14.1392V20.1392ZM61.3527 21.1209C62.561 21.7815 63.4559 22.6366 64.1043 23.6953L69.221 20.5618C67.9991 18.5665 66.3136 16.995 64.2311 15.8564L61.3527 21.1209ZM64.1043 23.6953C64.7374 24.7292 65.0653 25.8814 65.0653 27.2244H71.0653C71.0653 24.827 70.4581 22.5819 69.221 20.5618L64.1043 23.6953ZM65.0653 27.2244C65.0653 28.19 64.8918 29.1377 64.5327 30.0837L70.1421 32.2132C70.7536 30.6024 71.0653 28.934 71.0653 27.2244H65.0653ZM64.5273 30.0979C64.1903 30.9995 63.5398 32.1555 62.4603 33.5805L67.2428 37.2036C68.5308 35.5036 69.5375 33.8305 70.1474 32.1989L64.5273 30.0979ZM62.4582 33.5833C61.3727 35.0196 59.8213 36.8301 57.7733 39.0294L62.1642 43.1183C64.2828 40.8432 65.9867 38.8658 67.245 37.2008L62.4582 33.5833ZM57.7774 39.025L49.6097 47.7608L53.9925 51.8585L62.1601 43.1227L57.7774 39.025ZM48.8011 49.8097V50.0938H54.8011V49.8097H48.8011ZM51.8011 53.0938H68.7045V47.0938H51.8011V53.0938ZM65.7045 50.0938V54H71.7045V50.0938H65.7045ZM68.7045 51H45.7642V57H68.7045V51Z" fill="black"/>
</svg>
