<svg width="108" height="154" viewBox="0 0 108 154" fill="none" xmlns="http://www.w3.org/2000/svg">
<path d="M108 37.3154L27 69.6315L27 4.99931L108 37.3154Z" fill="#100BF8"/>
<line y1="-1.5" x2="149.335" y2="-1.5" transform="matrix(0.0314437 0.999506 -0.999838 0.018017 25.0435 4.7384)" stroke="black" stroke-width="3"/>
<path d="M50.0511 54.4972C47.7074 54.4972 45.6181 54.0947 43.7834 53.2898C41.9605 52.4848 40.5104 51.3662 39.4332 49.9339C38.3679 48.4898 37.7879 46.8149 37.6932 44.9091H42.1676C42.2623 46.081 42.6648 47.093 43.375 47.9453C44.0852 48.7857 45.0144 49.4368 46.1626 49.8984C47.3108 50.3601 48.5833 50.5909 49.9801 50.5909C51.5426 50.5909 52.9276 50.3187 54.1349 49.7741C55.3423 49.2296 56.2893 48.4721 56.9759 47.5014C57.6624 46.5308 58.0057 45.4062 58.0057 44.1278C58.0057 42.7902 57.6742 41.6125 57.0114 40.5945C56.3485 39.5646 55.3778 38.7597 54.0994 38.1797C52.821 37.5997 51.2585 37.3097 49.4119 37.3097H46.5V33.4034H49.4119C50.8561 33.4034 52.1226 33.143 53.2116 32.6222C54.3125 32.1013 55.1707 31.3674 55.7862 30.4205C56.4136 29.4735 56.7273 28.3608 56.7273 27.0824C56.7273 25.8513 56.455 24.7801 55.9105 23.8686C55.366 22.9571 54.5966 22.2469 53.6023 21.7379C52.6198 21.2289 51.4598 20.9744 50.1222 20.9744C48.8674 20.9744 47.6837 21.2053 46.571 21.6669C45.4702 22.1167 44.5705 22.7737 43.8722 23.6378C43.1738 24.4901 42.795 25.5199 42.7358 26.7273H38.4744C38.5455 24.8215 39.1196 23.1525 40.1967 21.7202C41.2739 20.276 42.6825 19.1515 44.4226 18.3466C46.1745 17.5417 48.098 17.1392 50.1932 17.1392C52.4422 17.1392 54.3717 17.5949 55.9815 18.5064C57.5914 19.406 58.8284 20.5956 59.6925 22.0753C60.5566 23.5549 60.9886 25.1529 60.9886 26.8693C60.9886 28.9171 60.45 30.6631 59.3729 32.1072C58.3075 33.5514 56.8575 34.5516 55.0227 35.108V35.392C57.3191 35.7708 59.1125 36.7474 60.4027 38.3217C61.6929 39.8842 62.3381 41.8196 62.3381 44.1278C62.3381 46.1046 61.7995 47.8802 60.7223 49.4545C59.657 51.017 58.201 52.2481 56.3544 53.1477C54.5078 54.0473 52.4067 54.4972 50.0511 54.4972Z" fill="black"/>
<path d="M43.7834 53.2898L42.5716 56.0341L42.5781 56.037L43.7834 53.2898ZM39.4332 49.9339L37.0191 51.7149L37.0273 51.726L37.0356 51.7371L39.4332 49.9339ZM37.6932 44.9091V41.9091H34.5404L34.6969 45.058L37.6932 44.9091ZM42.1676 44.9091L45.1579 44.6675L44.935 41.9091H42.1676V44.9091ZM43.375 47.9453L41.0703 49.8659L41.0769 49.8738L41.0836 49.8817L43.375 47.9453ZM46.1626 49.8984L45.0435 52.6819L45.0435 52.6819L46.1626 49.8984ZM56.9759 47.5014L54.5266 45.769L54.5266 45.769L56.9759 47.5014ZM57.0114 40.5945L54.4888 42.2182L54.4931 42.2248L54.4974 42.2315L57.0114 40.5945ZM54.0994 38.1797L52.8599 40.9117L52.8599 40.9117L54.0994 38.1797ZM46.5 37.3097H43.5V40.3097H46.5V37.3097ZM46.5 33.4034V30.4034H43.5V33.4034H46.5ZM53.2116 32.6222L51.9286 29.9103L51.9173 29.9158L53.2116 32.6222ZM55.7862 30.4205L53.2853 28.7636L53.278 28.7745L53.2709 28.7855L55.7862 30.4205ZM55.9105 23.8686L58.4859 22.33L58.4859 22.33L55.9105 23.8686ZM53.6023 21.7379L52.2223 24.4017L52.2288 24.405L52.2353 24.4084L53.6023 21.7379ZM46.571 21.6669L47.7058 24.444L47.7132 24.441L47.7207 24.4379L46.571 21.6669ZM43.8722 23.6378L46.1926 25.5393L46.199 25.5314L46.2054 25.5235L43.8722 23.6378ZM42.7358 26.7273V29.7273H45.5923L45.7322 26.8742L42.7358 26.7273ZM38.4744 26.7273L35.4765 26.6155L35.3605 29.7273H38.4744V26.7273ZM40.1967 21.7202L42.5944 23.5234L42.6015 23.5139L40.1967 21.7202ZM44.4226 18.3466L43.1701 15.6206L43.1631 15.6238L44.4226 18.3466ZM55.9815 18.5064L54.5035 21.117L54.5108 21.1211L54.5181 21.1252L55.9815 18.5064ZM59.6925 22.0753L57.1019 23.5882L57.1019 23.5882L59.6925 22.0753ZM59.3729 32.1072L56.9681 30.3136L56.9634 30.3199L56.9587 30.3263L59.3729 32.1072ZM55.0227 35.108L54.1522 32.237L52.0227 32.8827V35.108H55.0227ZM55.0227 35.392H52.0227V37.9377L54.5345 38.352L55.0227 35.392ZM60.4027 38.3217L58.0824 40.2234L58.0894 40.2319L60.4027 38.3217ZM60.7223 49.4545L58.2464 47.7605L58.2436 47.7645L60.7223 49.4545ZM56.3544 53.1477L57.6683 55.8447L57.6683 55.8447L56.3544 53.1477ZM50.0511 51.4972C48.0526 51.4972 46.3844 51.1549 44.9886 50.5425L42.5781 56.037C44.8518 57.0345 47.3622 57.4972 50.0511 57.4972V51.4972ZM44.9952 50.5454C43.5879 49.924 42.5663 49.1087 41.8309 48.1308L37.0356 51.7371C38.4545 53.6238 40.3331 55.0457 42.5716 56.0341L44.9952 50.5454ZM41.8474 48.153C41.155 47.2144 40.7568 46.1157 40.6895 44.7602L34.6969 45.058C34.8189 47.514 35.5808 49.7652 37.0191 51.7149L41.8474 48.153ZM37.6932 47.9091H42.1676V41.9091H37.6932V47.9091ZM39.1774 45.1507C39.3188 46.9005 39.9395 48.5089 41.0703 49.8659L45.6797 46.0248C45.39 45.6772 45.2059 45.2614 45.1579 44.6675L39.1774 45.1507ZM41.0836 49.8817C42.1473 51.1404 43.4987 52.0608 45.0435 52.6819L47.2818 47.115C46.5302 46.8128 46.0232 46.4311 45.6664 46.0089L41.0836 49.8817ZM45.0435 52.6819C46.5904 53.3038 48.249 53.5909 49.9801 53.5909V47.5909C48.9177 47.5909 48.0313 47.4164 47.2818 47.115L45.0435 52.6819ZM49.9801 53.5909C51.8924 53.5909 53.7098 53.2568 55.3683 52.5089L52.9016 47.0394C52.1453 47.3805 51.1929 47.5909 49.9801 47.5909V53.5909ZM55.3683 52.5089C57.0061 51.7703 58.3956 50.6893 59.4251 49.2338L54.5266 45.769C54.183 46.2548 53.6786 46.689 52.9016 47.0394L55.3683 52.5089ZM59.4251 49.2338C60.4974 47.7178 61.0057 45.9775 61.0057 44.1278H55.0057C55.0057 44.835 54.8274 45.3438 54.5266 45.769L59.4251 49.2338ZM61.0057 44.1278C61.0057 42.27 60.5371 40.5112 59.5254 38.9574L54.4974 42.2315C54.8113 42.7137 55.0057 43.3104 55.0057 44.1278H61.0057ZM59.534 38.9707C58.5151 37.3878 57.0639 36.2303 55.3389 35.4477L52.8599 40.9117C53.6918 41.2891 54.1819 41.7414 54.4888 42.2182L59.534 38.9707ZM55.3389 35.4477C53.5689 34.6447 51.5574 34.3097 49.4119 34.3097V40.3097C50.9597 40.3097 52.0731 40.5547 52.8599 40.9117L55.3389 35.4477ZM49.4119 34.3097H46.5V40.3097H49.4119V34.3097ZM49.5 37.3097V33.4034H43.5V37.3097H49.5ZM46.5 36.4034H49.4119V30.4034H46.5V36.4034ZM49.4119 36.4034C51.2172 36.4034 52.9412 36.0769 54.506 35.3286L51.9173 29.9158C51.304 30.209 50.495 30.4034 49.4119 30.4034V36.4034ZM54.4947 35.334C56.0573 34.5947 57.3592 33.5051 58.3016 32.0554L53.2709 28.7855C52.9821 29.2297 52.5677 29.608 51.9286 29.9104L54.4947 35.334ZM58.2872 32.0773C59.2798 30.579 59.7273 28.8737 59.7273 27.0824H53.7273C53.7273 27.8479 53.5474 28.368 53.2853 28.7636L58.2872 32.0773ZM59.7273 27.0824C59.7273 25.3972 59.3501 23.7765 58.4859 22.33L53.3351 25.4072C53.56 25.7836 53.7273 26.3054 53.7273 27.0824H59.7273ZM58.4859 22.33C57.6374 20.9097 56.4373 19.8189 54.9693 19.0675L52.2353 24.4084C52.7559 24.6749 53.0946 25.0046 53.3351 25.4072L58.4859 22.33ZM54.9823 19.0742C53.4931 18.3027 51.8407 17.9744 50.1222 17.9744V23.9744C51.0788 23.9744 51.7465 24.1552 52.2223 24.4017L54.9823 19.0742ZM50.1222 17.9744C48.4896 17.9744 46.9136 18.2768 45.4214 18.8959L47.7207 24.4379C48.4538 24.1337 49.2453 23.9744 50.1222 23.9744V17.9744ZM45.4363 18.8898C43.9011 19.5171 42.5776 20.4669 41.5389 21.752L46.2054 25.5235C46.5635 25.0804 47.0392 24.7164 47.7058 24.444L45.4363 18.8898ZM41.5517 21.7363C40.406 23.1345 39.8268 24.7966 39.7394 26.5804L45.7322 26.8742C45.7631 26.2432 45.9416 25.8456 46.1926 25.5393L41.5517 21.7363ZM42.7358 23.7273H38.4744V29.7273H42.7358V23.7273ZM41.4724 26.839C41.5221 25.5036 41.9094 24.4342 42.5944 23.5233L37.7991 19.917C36.3298 21.8708 35.5688 24.1393 35.4765 26.6155L41.4724 26.839ZM42.6015 23.5139C43.361 22.4956 44.3652 21.6786 45.6821 21.0694L43.1631 15.6238C40.9999 16.6244 39.1868 18.0565 37.792 19.9265L42.6015 23.5139ZM45.6751 21.0726C47.001 20.4634 48.4924 20.1392 50.1932 20.1392V14.1392C47.7036 14.1392 45.348 14.6199 43.1701 15.6206L45.6751 21.0726ZM50.1932 20.1392C52.0354 20.1392 53.4322 20.5105 54.5035 21.117L57.4596 15.8958C55.3111 14.6794 52.8491 14.1392 50.1932 14.1392V20.1392ZM54.5181 21.1252C55.6971 21.7841 56.5285 22.6064 57.1019 23.5882L62.2831 20.5624C61.1282 18.5848 59.4856 17.0279 57.445 15.8876L54.5181 21.1252ZM57.1019 23.5882C57.6974 24.6079 57.9886 25.6837 57.9886 26.8693H63.9886C63.9886 24.6222 63.4158 22.502 62.2831 20.5624L57.1019 23.5882ZM57.9886 26.8693C57.9886 28.363 57.6071 29.457 56.9681 30.3136L61.7776 33.9009C63.293 31.8693 63.9886 29.4713 63.9886 26.8693H57.9886ZM56.9587 30.3263C56.304 31.2137 55.4134 31.8546 54.1522 32.237L55.8933 37.9789C58.3016 37.2486 60.311 35.889 61.787 33.8882L56.9587 30.3263ZM52.0227 35.108V35.392H58.0227V35.108H52.0227ZM54.5345 38.352C56.2218 38.6304 57.32 39.2931 58.0824 40.2233L62.723 36.4201C60.9049 34.2016 58.4165 32.9113 55.511 32.432L54.5345 38.352ZM58.0894 40.2319C58.8746 41.1827 59.3381 42.4142 59.3381 44.1278H65.3381C65.3381 41.225 64.5113 38.5857 62.716 36.4115L58.0894 40.2319ZM59.3381 44.1278C59.3381 45.5233 58.9692 46.704 58.2464 47.7605L63.1982 51.1486C64.6297 49.0564 65.3381 46.6859 65.3381 44.1278H59.3381ZM58.2436 47.7645C57.4974 48.859 56.4595 49.7595 55.0405 50.4508L57.6683 55.8447C59.9425 54.7368 61.8166 53.175 63.201 51.1446L58.2436 47.7645ZM55.0405 50.4508C53.6594 51.1236 52.0184 51.4972 50.0511 51.4972V57.4972C52.7951 57.4972 55.3562 56.9711 57.6683 55.8447L55.0405 50.4508Z" fill="black"/>
</svg>
