<svg width="115" height="159" viewBox="0 0 115 159" fill="none" xmlns="http://www.w3.org/2000/svg">
<path d="M115 38.5269L28.75 71.8922L28.75 5.16163L115 38.5269Z" fill="#F80B0B"/>
<line y1="-1.5" x2="154.189" y2="-1.5" transform="matrix(0.0324278 0.999474 -0.999847 0.0174699 26.6667 4.89233)" stroke="black" stroke-width="3"/>
<path d="M54.5483 19.6364V56H50.1449V24.2528H49.9318L41.054 30.1477V25.6733L50.1449 19.6364H54.5483Z" fill="black"/>
<path d="M54.5483 19.6364H57.5483V16.6364H54.5483V19.6364ZM54.5483 56V59H57.5483V56H54.5483ZM50.1449 56H47.1449V59H50.1449V56ZM50.1449 24.2528H53.1449V21.2528H50.1449V24.2528ZM49.9318 24.2528V21.2528H49.0265L48.2723 21.7536L49.9318 24.2528ZM41.054 30.1477H38.054V35.7408L42.7135 32.6469L41.054 30.1477ZM41.054 25.6733L39.3944 23.1741L38.054 24.0643V25.6733H41.054ZM50.1449 19.6364V16.6364H49.2395L48.4853 17.1372L50.1449 19.6364ZM51.5483 19.6364V56H57.5483V19.6364H51.5483ZM54.5483 53H50.1449V59H54.5483V53ZM53.1449 56V24.2528H47.1449V56H53.1449ZM50.1449 21.2528H49.9318V27.2528H50.1449V21.2528ZM48.2723 21.7536L39.3945 27.6485L42.7135 32.6469L51.5913 26.7521L48.2723 21.7536ZM44.054 30.1477V25.6733H38.054V30.1477H44.054ZM42.7136 28.1724L51.8045 22.1355L48.4853 17.1372L39.3944 23.1741L42.7136 28.1724ZM50.1449 22.6364H54.5483V16.6364H50.1449V22.6364Z" fill="black"/>
</svg>
